<svg xmlns="http://www.w3.org/2000/svg" viewBox="0 0 117.97 127.6"><defs><style>.cls-1{fill:#6c98d8;}.cls-2{fill:#f9f9f9;}.cls-3{fill:#b0b0b0;}.cls-4{fill:#91b6ed;}.cls-5{fill:#83afdb;}</style></defs><title>Asset 3</title><g id="Layer_2" data-name="Layer 2"><g id="Layer_1-2" data-name="Layer 1"><polygon class="cls-1" points="58.99 0 117.97 48.12 58.76 98.9 0 48.12 58.99 0"/><rect class="cls-1" x="7.94" y="10.76" width="101.75" height="5.44"/><rect class="cls-2" x="7.94" y="16.19" width="101.75" height="98.03"/><rect class="cls-3" x="16.71" y="31.33" width="38.12" height="2.31"/><rect class="cls-3" x="16.71" y="52.76" width="84.23" height="2.31"/><rect class="cls-3" x="16.71" y="58.02" width="84.23" height="2.31"/><rect class="cls-3" x="16.71" y="63.28" width="84.23" height="2.31"/><rect class="cls-3" x="16.7" y="36.29" width="84.23" height="2.31"/><rect class="cls-3" x="16.7" y="41.55" width="84.23" height="2.31"/><rect class="cls-3" x="16.7" y="46.81" width="84.23" height="2.31"/><rect class="cls-3" x="16.71" y="68.53" width="84.23" height="2.31"/><rect class="cls-3" x="16.71" y="73.8" width="84.23" height="2.31"/><rect class="cls-3" x="16.71" y="79.06" width="84.23" height="2.31"/><rect class="cls-3" x="16.71" y="84.31" width="84.23" height="2.31"/><rect class="cls-3" x="16.71" y="89.57" width="84.23" height="2.31"/><rect class="cls-3" x="16.71" y="94.8" width="84.23" height="2.31"/><rect class="cls-3" x="16.71" y="100.06" width="84.23" height="2.31"/><rect class="cls-3" x="16.71" y="105.32" width="84.23" height="2.32"/><path class="cls-4" d="M118,48.12v73.05a6.44,6.44,0,0,1-6.43,6.42H6.41C2.41,127.6,118,48.12,118,48.12Z"/><path class="cls-5" d="M0,48.12v73.05a6.44,6.44,0,0,0,6.4,6.43H111.54C115.6,127.6,0,48.12,0,48.12Z"/></g></g></svg>